<?xml version="1.0" encoding="UTF-8" standalone="no"?>
<svg
   xmlns:dc="http://purl.org/dc/elements/1.1/"
   xmlns:cc="http://creativecommons.org/ns#"
   xmlns:rdf="http://www.w3.org/1999/02/22-rdf-syntax-ns#"
   xmlns:svg="http://www.w3.org/2000/svg"
   xmlns="http://www.w3.org/2000/svg"
   xmlns:sodipodi="http://sodipodi.sourceforge.net/DTD/sodipodi-0.dtd"
   xmlns:inkscape="http://www.inkscape.org/namespaces/inkscape"
   width="827.27148"
   height="827.26758"
   viewBox="0 0 218.88224 218.88121"
   version="1.1"
   id="svg2761"
   inkscape:version="1.0 (4035a4fb49, 2020-05-01)"
   sodipodi:docname="button_circle_bg.svg">
  <defs
     id="defs2755" />
  <sodipodi:namedview
     inkscape:snap-page="true"
     units="px"
     id="base"
     pagecolor="#a9a9a9"
     bordercolor="#000000"
     borderopacity="1"
     inkscape:pageopacity="0"
     inkscape:pageshadow="2"
     inkscape:zoom="0.49497475"
     inkscape:cx="402.34152"
     inkscape:cy="432.63558"
     inkscape:document-units="mm"
     inkscape:current-layer="layer2"
     inkscape:document-rotation="0"
     showgrid="false"
     inkscape:window-width="1920"
     inkscape:window-height="1052"
     inkscape:window-x="-8"
     inkscape:window-y="-8"
     inkscape:window-maximized="1"
     inkscape:pagecheckerboard="true"
     showborder="true"
     borderlayer="true"
     inkscape:showpageshadow="false" />
  <metadata
     id="metadata2758">
    <rdf:RDF>
      <cc:Work
         rdf:about="">
        <dc:format>image/svg+xml</dc:format>
        <dc:type
           rdf:resource="http://purl.org/dc/dcmitype/StillImage" />
        <dc:title></dc:title>
      </cc:Work>
    </rdf:RDF>
  </metadata>
  <g
     transform="translate(-22.850284,-22.849251)"
     inkscape:label="layer 1"
     id="layer2"
     inkscape:groupmode="layer">
    <path
       transform="scale(0.26458333)"
       d="M 367.66992,86.359375 A 434.28565,434.28565 0 0 0 86.363281,367.66992 H 143.56641 A 380.20331,380.20331 0 0 1 367.66992,143.5625 Z m 264.66016,0 V 143.5625 a 380.20331,380.20331 0 0 1 224.10351,224.10742 h 57.20118 A 434.28565,434.28565 0 0 0 632.33008,86.359375 Z M 86.369141,632.33008 A 434.28565,434.28565 0 0 0 367.66992,913.625 V 856.42578 A 380.20331,380.20331 0 0 1 143.57227,632.33008 Z m 770.060549,0 A 380.20331,380.20331 0 0 1 632.33008,856.42383 v 57.20312 A 434.28565,434.28565 0 0 0 913.63086,632.33008 Z"
       style="opacity:1;fill:#ffffff;stroke-width:1.88976;stroke-linecap:round"
       id="path2885" />
  </g>
</svg>
