<?xml version="1.0" encoding="UTF-8" standalone="no"?>
<svg
   xmlns:dc="http://purl.org/dc/elements/1.1/"
   xmlns:cc="http://creativecommons.org/ns#"
   xmlns:rdf="http://www.w3.org/1999/02/22-rdf-syntax-ns#"
   xmlns:svg="http://www.w3.org/2000/svg"
   xmlns="http://www.w3.org/2000/svg"
   xmlns:sodipodi="http://sodipodi.sourceforge.net/DTD/sodipodi-0.dtd"
   xmlns:inkscape="http://www.inkscape.org/namespaces/inkscape"
   width="1000"
   height="1000"
   viewBox="0 0 264.58333 264.58333"
   version="1.1"
   id="svg2761"
   inkscape:version="1.0 (4035a4fb49, 2020-05-01)"
   sodipodi:docname="fire_logo.svg">
  <defs
     id="defs2755" />
  <sodipodi:namedview
     inkscape:snap-page="true"
     units="px"
     id="base"
     pagecolor="#a9a9a9"
     bordercolor="#000000"
     borderopacity="1"
     inkscape:pageopacity="0"
     inkscape:pageshadow="2"
     inkscape:zoom="0.24748737"
     inkscape:cx="641.16016"
     inkscape:cy="559.29008"
     inkscape:document-units="mm"
     inkscape:current-layer="layer2"
     inkscape:document-rotation="0"
     showgrid="false"
     inkscape:window-width="1920"
     inkscape:window-height="1052"
     inkscape:window-x="-8"
     inkscape:window-y="-8"
     inkscape:window-maximized="1"
     inkscape:pagecheckerboard="true"
     showborder="true"
     borderlayer="true"
     inkscape:showpageshadow="false" />
  <metadata
     id="metadata2758">
    <rdf:RDF>
      <cc:Work
         rdf:about="">
        <dc:format>image/svg+xml</dc:format>
        <dc:type
           rdf:resource="http://purl.org/dc/dcmitype/StillImage" />
        <dc:title></dc:title>
      </cc:Work>
    </rdf:RDF>
  </metadata>
  <g
     inkscape:label="layer 1"
     id="layer2"
     inkscape:groupmode="layer">
    <path
       id="path846"
       d="m 131.16876,236.42067 c -3.66987,-0.24517 -7.65002,-0.87444 -11.542,-1.82483 -3.44,-0.84001 -9.44842,-2.7705 -11.63088,-3.73696 l -1.41299,-0.62572 8.95361,-5.2e-4 c 10.86438,-5.3e-4 11.74956,-0.12421 20.19841,-2.82067 6.71358,-2.14266 11.82648,-5.15748 16.29001,-9.60543 7.98495,-7.95707 12.63279,-18.32267 14.84213,-33.10091 0.59809,-4.00058 0.68627,-18.10874 0.13796,-22.07354 -1.82641,-13.20687 -5.70665,-24.20283 -10.82554,-30.67775 l -1.52685,-1.93133 -0.15806,4.86131 c -0.28561,8.7847 -1.87458,13.80266 -8.70272,27.48318 -6.87223,13.76884 -8.82095,20.57612 -8.824,30.82396 -0.002,6.22098 0.8041,11.3332 2.8539,18.10249 0.37098,1.22512 0.61875,2.28325 0.5506,2.3514 -0.16489,0.16489 -4.76218,-4.08773 -7.41878,-6.86257 -5.71865,-5.97317 -9.20675,-12.4788 -12.01119,-22.40194 -0.57828,-2.04617 -1.12079,-4.2346 -1.20557,-4.86318 -0.0848,-0.62857 -0.26777,-1.67865 -0.40662,-2.33349 -0.36898,-1.74014 -0.79124,-6.90746 -0.79228,-9.69541 -0.003,-7.93769 1.96118,-17.45264 5.42655,-26.28792 1.92543,-4.90907 6.07194,-13.06247 9.0826,-17.85938 1.89254,-3.0154 6.59337,-12.44866 8.8124,-17.68403 2.76999,-6.535294 6.03096,-16.085814 7.26452,-21.275864 0.25075,-1.05503 0.52841,-1.91823 0.61701,-1.91823 0.0886,0 0.39653,0.44639 0.68428,0.99198 0.28776,0.54558 1.49032,2.53988 2.67236,4.43177 12.69699,20.321814 16.43958,26.489164 20.39121,33.602294 2.34321,4.2179 7.75441,14.90175 7.75441,15.31028 0,0.085 0.37144,0.96125 0.82542,1.94716 3.6493,7.92512 6.77423,18.59564 8.07974,27.58943 0.66838,4.60451 0.67263,14.74729 0.008,19.05 -3.04313,19.70038 -13.44691,34.66996 -31.0467,44.67185 -6.92299,3.9343 -13.61206,5.99126 -20.42946,6.28228 -1.69268,0.0723 -3.4348,0.16265 -3.87136,0.20088 -0.43656,0.0382 -2.07461,-0.0161 -3.6401,-0.12063 z m -19.23514,-15.58808 c -15.242054,-2.11133 -26.534824,-9.70918 -32.431694,-21.82026 -2.08416,-4.28047 -4.05525,-11.14233 -5.05416,-17.59479 -0.73207,-4.7288 -0.67753,-14.54606 0.10808,-19.45338 1.62882,-10.17438 4.21507,-17.47745 10.7201,-30.27145 5.11917,-10.06833 7.7643,-14.3123 23.509524,-37.719964 2.83867,-4.2201 5.23779,-7.88127 5.3314,-8.13593 0.0936,-0.25466 0.29298,-0.46302 0.44307,-0.46302 0.15009,0 0.27289,-0.12198 0.27289,-0.27107 0,-0.27787 2.08626,-3.724025 2.39871,-3.962275 0.0954,-0.0728 0.62363,-0.965726 1.17378,-1.984371 0.55016,-1.018646 1.14458,-2.030677 1.32094,-2.248959 0.62211,-0.769998 4.10224,-7.329127 6.17681,-11.641666 2.85873,-5.942615 4.68902,-10.641451 6.38974,-16.404166 1.84973,-6.267616 2.34352,-9.689673 2.39775,-16.616695 0.0246,-3.139455 0.11722,-4.285752 0.34035,-4.211372 0.79666,0.265551 2.84106,6.522468 3.99578,12.22911 1.41361,6.986118 1.59335,8.994925 1.59802,17.859374 0.005,9.225755 -0.15701,10.86088 -1.85973,18.785415 -2.37421,11.049675 -6.63481,21.625325 -13.48393,33.469799 -10.07006,17.41458 -15.55198,31.77667 -17.60003,46.1103 -2.32597,16.27868 -0.44342,30.47006 5.71133,43.05428 3.03385,6.20312 7.01199,11.5873 12.63333,17.09852 l 3.40694,3.3402 -2.33896,0.4603 c -2.69891,0.53115 -12.35347,0.78083 -15.16004,0.39207 z"
       style="fill:#ffffff;stroke-width:0.264583" />
  </g>
</svg>
